<svg width="101" height="100" viewBox="0 0 101 100" fill="none" xmlns="http://www.w3.org/2000/svg">
<rect x="0.500244" width="100" height="100" rx="8" fill="#1C2F40"/>
<path d="M22.2294 47.781L22.6884 46.3529L20.5131 45.6538L20.7366 47.9277L22.2294 47.781ZM45.498 76.5498L44.3317 77.4931V77.4931L45.498 76.5498ZM51.417 76.8839L50.3591 75.8205V75.8205L51.417 76.8839ZM99.5 31L101 31.0001L101 28.0001L99.5002 28L99.5001 29.5L99.5 31ZM32.1906 50.9821L32.6495 49.554L22.6884 46.3529L22.2294 47.781L21.7705 49.209L31.7316 52.4102L32.1906 50.9821ZM22.2294 47.781L20.7366 47.9277L21.7649 58.3878L23.2577 58.241L24.7506 58.0942L23.7222 47.6342L22.2294 47.781ZM22.2294 47.781L21.0632 48.7243L44.3317 77.4931L45.498 76.5498L46.6642 75.6065L23.3957 46.8377L22.2294 47.781ZM51.417 76.8839L52.4749 77.9473C58.0042 72.4463 69.9176 60.6015 80.5014 50.1324C85.7936 44.8976 90.7515 40.0085 94.412 36.429C96.2429 34.6386 97.7457 33.1792 98.8024 32.169C99.3319 31.6627 99.7427 31.2756 100.024 31.0178C100.167 30.887 100.265 30.8006 100.323 30.7514C100.355 30.7244 100.356 30.725 100.337 30.7388C100.331 30.7436 100.29 30.7733 100.229 30.8082C100.199 30.8253 100.137 30.8598 100.052 30.8938C99.9961 30.9163 99.7859 31 99.5 31L99.5001 29.5L99.5002 28C99.211 28 98.9964 28.0849 98.9349 28.1096C98.8446 28.1458 98.7755 28.1836 98.738 28.2051C98.6615 28.2489 98.6013 28.2917 98.5706 28.3141C98.5036 28.3629 98.4392 28.4159 98.3893 28.458C98.2835 28.5472 98.1501 28.6664 97.9989 28.8048C97.6925 29.0853 97.2627 29.4905 96.7292 30.0006C95.6599 31.0229 94.1474 32.4918 92.3145 34.2841C88.6477 37.8698 83.6848 42.7638 78.3917 47.9996C67.8047 58.4718 55.8887 70.3191 50.3591 75.8205L51.417 76.8839ZM45.498 76.5498L44.3317 77.4931C46.3764 80.0211 50.1558 80.2545 52.4749 77.9473L51.417 76.8839L50.3591 75.8205C49.3149 76.8593 47.603 76.7672 46.6642 75.6065L45.498 76.5498Z" fill="#A68446"/>
<path d="M51.7834 82.64C62.6634 82.64 68.1034 78.7467 68.1034 70.96C68.1034 64.1333 61.5967 58.7467 48.5834 54.8C42.61 53.0933 37.5967 51.28 33.5434 49.36C29.49 47.5467 26.29 44.9867 23.9434 41.68C21.49 38.48 20.2634 35.0133 20.2634 31.28C20.2634 27.6533 21.3834 24.24 23.6234 21.04C29.2767 13.2533 37.1167 9.36 47.1434 9.36C47.3567 9.36 47.57 9.36 47.7834 9.36C47.89 9.36 47.9434 9.36 47.9434 9.36C53.3834 9.36 59.0367 11.4933 64.9034 15.76C65.5434 15.76 65.9167 15.3867 66.0234 14.64L66.8234 6.48H74.8234L78.0234 37.52C67.9967 24.5067 58.0767 18 48.2634 18C38.45 18 33.5434 21.1467 33.5434 27.44C33.5434 33.4133 39.9434 38 52.7434 41.2C60.7434 43.2267 66.7167 45.2 70.6634 47.12C79.09 51.3867 83.3034 57.8933 83.3034 66.64V67.12C83.3034 73.7333 80.53 79.44 74.9834 84.24C69.33 89.04 61.7034 91.44 52.1034 91.44C46.0234 91.44 39.09 87.5467 31.3034 79.76C30.8767 82.4267 30.5034 85.8933 30.1834 90.16H22.1834L18.9834 57.52C33.9167 74.2667 44.85 82.64 51.7834 82.64Z" fill="white"/>
<path d="M71.6665 60.4758L70.7364 61.6526L72.884 63.3501L73.1589 60.6264L71.6665 60.4758ZM55.6211 23.7137L56.9959 23.1136L56.9959 23.1136L55.6211 23.7137ZM50.3237 21.6605L49.7064 20.2934V20.2934L50.3237 21.6605ZM1.5004 42L0.000399489 41.9998L-4.91548e-06 44.9998L1.5 45L1.5002 43.5L1.5004 42ZM64.6292 54.9137L63.6991 56.0905L70.7364 61.6526L71.6665 60.4758L72.5966 59.299L65.5593 53.7369L64.6292 54.9137ZM71.6665 60.4758L73.1589 60.6264L74.205 50.2607L72.7126 50.1101L71.2201 49.9595L70.1741 60.3252L71.6665 60.4758ZM71.6665 60.4758L73.0412 59.8758L56.9959 23.1136L55.6211 23.7137L54.2464 24.3137L70.2917 61.0758L71.6665 60.4758ZM50.3237 21.6605L49.7064 20.2934C43.7736 22.9721 31.6735 28.4315 21.0048 33.221C15.6701 35.6159 10.695 37.8425 7.02825 39.47C5.19428 40.2841 3.69084 40.9468 2.63431 41.4054C2.10503 41.6352 1.69382 41.8111 1.41131 41.9286C1.26849 41.9879 1.16855 42.0282 1.1065 42.052C1.07361 42.0646 1.06573 42.067 1.07386 42.0643C1.07666 42.0634 1.10096 42.0553 1.13752 42.0457C1.15583 42.0409 1.19082 42.0322 1.23632 42.0239C1.26993 42.0177 1.36986 42 1.5004 42L1.5002 43.5L1.5 45C1.71676 45.0001 1.89053 44.9497 1.89567 44.9483C1.94753 44.9348 1.99148 44.9207 2.01823 44.9118C2.07425 44.8932 2.13143 44.8719 2.18032 44.8532C2.28182 44.8143 2.41226 44.7613 2.56295 44.6987C2.86746 44.5721 3.29578 44.3887 3.82884 44.1573C4.897 43.6937 6.40953 43.0269 8.24534 42.2121C11.9181 40.5818 16.8978 38.3531 22.2334 35.9578C32.9052 31.167 45.0076 25.7066 50.9409 23.0277L50.3237 21.6605ZM55.6211 23.7137L56.9959 23.1136C55.7732 20.3122 52.5078 19.0286 49.7064 20.2934L50.3237 21.6605L50.9409 23.0277C52.2033 22.4577 53.6855 23.0287 54.2464 24.3137L55.6211 23.7137Z" fill="#A68446"/>
<path d="M23.9057 33.4C23.9193 33.4 23.9673 33.4 24.166 33.3658C24.6024 33.2908 24.9055 33.1794 24.9674 33.1519C25.1173 33.0852 25.3049 33.083 25.5017 33.0106C25.6059 32.9722 25.6987 32.945 25.8802 32.8661C26.2791 32.6928 26.609 32.5863 26.7532 32.5245C27.1268 32.3642 27.3192 32.3451 27.5055 32.3C27.7522 32.2402 28.1183 32.0285 28.347 31.9071C28.4869 31.8328 28.6501 31.6694 28.8327 31.5488C29.0752 31.3886 29.2717 31.0696 29.3612 30.9277C29.5345 30.6531 29.9265 30.5241 30.027 30.4584C30.1128 30.4023 30.1959 30.3172 30.3097 30.2171C30.3945 30.1426 30.5195 29.9526 30.6237 29.817C30.6911 29.7294 30.6925 29.5863 30.717 29.4653C30.7302 29.4006 30.7411 29.3307 30.7515 29.139C30.7925 28.379 30.8858 28.2686 30.9033 28.1685C30.9112 28.1233 30.9205 28.4645 30.9137 29.0266C30.9109 29.2549 30.8792 29.4733 30.8928 29.7972C30.9087 30.1729 31.0238 30.365 31.0685 30.389C31.0947 30.403 31.12 30.4335 31.1341 30.3588C31.2185 29.9105 31.1689 29.6976 31.1243 29.5205C31.0955 29.406 31.024 29.2759 30.9657 29.1412C30.9393 29.0804 30.9001 29.0477 30.869 29.0134C30.8493 28.9916 30.8585 28.9382 30.8653 28.9341C30.9665 28.8727 30.9408 29.2258 30.9963 29.3953C31.0515 29.564 31.0447 29.6678 31.0687 29.7921C31.0878 29.8908 31.1411 30.1558 31.179 30.3474C31.2189 30.5491 31.3688 30.7434 31.441 30.9541C31.4557 30.9971 31.4925 31.0062 31.5168 31.0099C31.5411 31.0135 31.5616 31.0067 31.5722 30.9656C31.6254 30.7582 31.5211 30.6689 31.4484 30.5518C31.3381 30.374 31.3485 30.152 31.2829 29.9931C31.2396 29.8884 31.2173 29.7998 31.1725 29.669C31.12 29.5157 31.1138 29.3864 31.1 29.1382C31.0904 28.9673 31.0447 28.8207 31.0104 28.6825C30.9799 28.5601 30.9619 28.3321 30.9449 28.0835C30.9413 28.0323 30.8038 28.2123 30.6767 28.3601C30.5247 28.5369 30.2873 28.7087 30.0019 28.9252C29.8456 29.0437 29.6959 29.2167 29.3624 29.6631C29.0288 30.1094 28.5235 30.8332 27.9968 31.4554C27.4702 32.0775 26.9376 32.576 26.6222 32.8635C26.2315 33.2198 26.12 33.2963 26.0412 33.3615C25.7498 33.6024 25.5478 33.6686 25.2421 33.8029C24.6532 34.0616 24.4308 34.0344 24.2857 34.1203C24.0129 34.2817 23.8308 34.3308 23.3934 34.4068C23.306 34.422 23.2853 34.4276 23.2611 34.4209C23.2369 34.4141 23.2096 34.3937 23.1921 34.366C23.1029 34.2252 23.0577 34.0146 23.0022 33.8353C22.9877 33.7884 22.9952 33.7389 23.002 33.7246C23.0088 33.7102 23.0225 33.7307 23.0364 33.7617C23.1621 34.0431 23.1189 34.4826 23.1606 34.5653C23.2019 34.6759 23.2571 34.7719 23.2985 34.9098C23.3056 34.9716 23.3056 35.074 23.3056 35.1796" stroke="white" stroke-width="5" stroke-linecap="round"/>
</svg>
