<svg width="100" height="100" viewBox="0 0 100 100" fill="none" xmlns="http://www.w3.org/2000/svg">
<rect width="100" height="100" rx="8" fill="#1C2F40"/>
<rect x="27.5207" y="66.5551" width="22.3104" height="47.6208" rx="6.5" transform="rotate(-60 27.5207 66.5551)" stroke="#A68446" stroke-width="3"/>
<rect x="21.0267" y="28.5551" width="22.3104" height="47.6208" rx="6.5" transform="rotate(-60 21.0267 28.5551)" stroke="#A68446" stroke-width="3"/>
<path d="M76 58.5002L75.5528 59.3946L77.3816 60.309L76.9806 58.304L76 58.5002ZM52.0205 25.4716L51.2113 26.0591V26.0591L52.0205 25.4716ZM46.2132 24.7569L46.8558 25.5231L46.8558 25.5231L46.2132 24.7569ZM33.3574 34.2339C32.9343 34.5888 32.879 35.2196 33.2339 35.6427C33.5888 36.0659 34.2195 36.1212 34.6427 35.7663L34 35.0001L33.3574 34.2339ZM68 54.5001L67.5528 55.3945L75.5528 59.3946L76 58.5002L76.4472 57.6057L68.4472 53.6057L68 54.5001ZM76 58.5002L76.9806 58.304L74.9806 48.304L74 48.5001L73.0194 48.6962L75.0194 58.6963L76 58.5002ZM76 58.5002L76.8092 57.9126L52.8297 24.8841L52.0205 25.4716L51.2113 26.0591L75.1908 59.0877L76 58.5002ZM46.2132 24.7569L45.5706 23.9907L33.3574 34.2339L34 35.0001L34.6427 35.7663L46.8558 25.5231L46.2132 24.7569ZM52.0205 25.4716L52.8297 24.8841C51.1266 22.5382 47.7918 22.1278 45.5706 23.9907L46.2132 24.7569L46.8558 25.5231C48.1885 24.4053 50.1894 24.6516 51.2113 26.0591L52.0205 25.4716Z" fill="#A68446"/>
<path d="M24.4724 42.8741L24.8698 41.9564L23.3054 41.2789L23.4775 42.975L24.4724 42.8741ZM46.846 72.9342L46.0438 73.5313V73.5313L46.846 72.9342ZM52.7671 73.4859L53.4452 74.2209L53.4452 74.2209L52.7671 73.4859ZM64.3682 64.1435C64.7741 63.7691 64.7996 63.1364 64.4251 62.7305C64.0506 62.3246 63.418 62.2991 63.012 62.6736L63.6901 63.4086L64.3682 64.1435ZM34 47.0001L34.3974 46.0824L24.8698 41.9564L24.4724 42.8741L24.075 43.7917L33.6026 47.9177L34 47.0001ZM24.4724 42.8741L23.4775 42.975L24.5051 53.101L25.5 53.0001L26.4949 52.8991L25.4673 42.7731L24.4724 42.8741ZM24.4724 42.8741L23.6702 43.4711L46.0438 73.5313L46.846 72.9342L47.6482 72.3372L25.2746 42.277L24.4724 42.8741ZM52.7671 73.4859L53.4452 74.2209L64.3682 64.1435L63.6901 63.4086L63.012 62.6736L52.089 72.7509L52.7671 73.4859ZM46.846 72.9342L46.0438 73.5313C47.8167 75.9133 51.2627 76.2344 53.4452 74.2209L52.7671 73.4859L52.089 72.7509C50.7795 73.959 48.7119 73.7664 47.6482 72.3372L46.846 72.9342Z" fill="#A68446"/>
</svg>
