<svg width="100" height="100" viewBox="0 0 100 100" fill="none" xmlns="http://www.w3.org/2000/svg">
<rect x="0.000732422" width="100" height="100" rx="8" fill="#1C2F40"/>
<path d="M32.5007 59L33.9712 54.2211L24.6849 51.3638L27.7573 60.5811L32.5007 59ZM47.0032 73.917L50.5883 70.4317L50.5882 70.4317L47.0032 73.917ZM52.8549 73.795L56.5882 77.121L56.5882 77.121L52.8549 73.795ZM95.0004 32L100 32.0002L100.001 22.0002L95.0009 22L95.0006 27L95.0004 32ZM39.0007 61L40.4712 56.2211L33.9712 54.2211L32.5007 59L31.0303 63.7789L37.5303 65.7789L39.0007 61ZM32.5007 59L27.7573 60.5811L29.7573 66.5811L34.5007 65L39.2442 63.4189L37.2441 57.4189L32.5007 59ZM32.5007 59L28.9157 62.4854L43.4183 77.4024L47.0032 73.917L50.5882 70.4317L36.0857 55.5146L32.5007 59ZM52.8549 73.795L56.5882 77.121C61.5039 71.6034 71.9302 59.9097 81.179 49.5969C85.8045 44.4392 90.1289 39.6344 93.3203 36.1221C94.9183 34.3635 96.2197 32.9427 97.1288 31.9676C97.5876 31.4755 97.9227 31.1224 98.1375 30.9032C98.2522 30.7861 98.2902 30.7507 98.2774 30.7625C98.2704 30.769 98.2509 30.7871 98.2215 30.813C98.1953 30.836 98.139 30.8849 98.0612 30.9464C98.0034 30.9922 97.8306 31.1278 97.5861 31.2767C97.4654 31.3502 97.232 31.4858 96.9185 31.6166C96.686 31.7135 95.9707 32.0001 95.0004 32L95.0006 27L95.0009 22C94.0272 22 93.3077 22.2876 93.07 22.3867C92.7512 22.5197 92.5117 22.6585 92.3839 22.7364C92.1252 22.894 91.9343 23.0426 91.8547 23.1056C91.6761 23.2469 91.5325 23.3791 91.4635 23.4433C91.3047 23.5912 91.1384 23.7579 90.9939 23.9054C90.6903 24.2153 90.2873 24.6413 89.8145 25.1485C88.8603 26.172 87.5241 27.6311 85.9193 29.3972C82.7052 32.9344 78.3632 37.7589 73.7343 42.9203C64.4742 53.2458 54.039 64.9495 49.1216 70.4689L52.8549 73.795ZM47.0032 73.917L43.4182 77.4024C47.0522 81.1402 53.1041 81.0316 56.5882 77.121L52.8549 73.795L49.1216 70.4689C49.5153 70.027 50.1927 70.0248 50.5883 70.4317L47.0032 73.917Z" fill="#A68446"/>
<path d="M51.2839 82.64C62.1639 82.64 67.6039 78.7467 67.6039 70.96C67.6039 64.1333 61.0972 58.7467 48.0839 54.8C42.1105 53.0933 37.0972 51.28 33.0439 49.36C28.9905 47.5467 25.7905 44.9867 23.4439 41.68C20.9905 38.48 19.7639 35.0133 19.7639 31.28C19.7639 27.6533 20.8839 24.24 23.1239 21.04C28.7772 13.2533 36.6172 9.36 46.6439 9.36C46.8572 9.36 47.0705 9.36 47.2839 9.36C47.3905 9.36 47.4439 9.36 47.4439 9.36C52.8839 9.36 58.5372 11.4933 64.4039 15.76C65.0439 15.76 65.4172 15.3867 65.5239 14.64L66.3239 6.48H74.3239L77.5239 37.52C67.4972 24.5067 57.5772 18 47.7639 18C37.9505 18 33.0439 21.1467 33.0439 27.44C33.0439 33.4133 39.4439 38 52.2439 41.2C60.2439 43.2267 66.2172 45.2 70.1639 47.12C78.5905 51.3867 82.8039 57.8933 82.8039 66.64V67.12C82.8039 73.7333 80.0305 79.44 74.4839 84.24C68.8305 89.04 61.2039 91.44 51.6039 91.44C45.5239 91.44 38.5905 87.5467 30.8039 79.76C30.3772 82.4267 30.0039 85.8933 29.6839 90.16H21.6839L18.4839 57.52C33.4172 74.2667 44.3505 82.64 51.2839 82.64Z" fill="white"/>
<path d="M75.0007 71L72.3801 75.2583L80.0007 79.9479L80.0007 71L75.0007 71ZM53.6754 26.495L49.1664 28.6556L49.1664 28.6556L53.6754 26.495ZM48.4757 24.553L46.4606 19.977L46.4606 19.977L48.4757 24.553ZM5.00143 38.5L0.001427 38.4993L0.000102671 48.4993L5.0001 48.5L5.00077 43.5L5.00143 38.5ZM68.5007 67L65.8802 71.2583L72.3801 75.2583L75.0007 71L77.6212 66.7417L71.1213 62.7417L68.5007 67ZM75.0007 71L80.0007 71L80.0007 62L75.0007 62L70.0007 62L70.0007 71L75.0007 71ZM75.0007 71L79.5097 68.8394L58.1845 24.3344L53.6754 26.495L49.1664 28.6556L70.4916 73.1606L75.0007 71ZM48.4757 24.553L46.4606 19.977C41.0349 22.3664 30.2745 27.1012 20.8199 31.2381C16.0915 33.307 11.6962 35.2235 8.45993 36.6217C6.83967 37.3216 5.52184 37.8865 4.60165 38.2742C4.13791 38.4696 3.79658 38.6109 3.57541 38.6997C3.52191 38.7212 3.48044 38.7376 3.44962 38.7496C3.41719 38.7622 3.40538 38.7665 3.40902 38.7652C3.41136 38.7643 3.42332 38.7599 3.44269 38.7532C3.46017 38.7472 3.49808 38.7342 3.54987 38.718C3.59184 38.7048 3.69857 38.672 3.84082 38.6375C3.85916 38.6331 4.35848 38.4999 5.00143 38.5L5.00077 43.5L5.0001 48.5C5.64954 48.5001 6.15924 48.3651 6.19178 48.3573C6.34824 48.3194 6.473 48.2814 6.53678 48.2615C6.67123 48.2194 6.78721 48.1776 6.85346 48.1532C6.99797 48.1002 7.15574 48.0381 7.3011 47.9797C7.60266 47.8587 8.00648 47.691 8.48435 47.4896C9.44738 47.0839 10.7987 46.5046 12.4258 45.8016C15.6842 44.394 20.0967 42.4699 24.8285 40.3995C34.2943 36.2577 45.0635 31.519 50.4909 29.1289L48.4757 24.553ZM53.6754 26.495L58.1845 24.3344C56.1009 19.9859 50.9413 18.0038 46.4606 19.977L48.4757 24.553L50.4909 29.1289C49.9636 29.3611 49.3833 29.1084 49.1664 28.6556L53.6754 26.495Z" fill="#A68446"/>
<path d="M25.217 27.3775C25.2544 27.4274 25.2918 27.4773 26.3084 29.2731C27.3249 31.069 29.3195 34.6094 30.4281 36.5454C31.5366 38.4814 31.6987 38.7058 31.8382 38.9398C31.9778 39.1739 32.09 39.4107 32.1603 39.4704C32.2305 39.5301 32.2555 39.4054 32.2434 39.254C32.2313 39.1025 32.1814 38.9279 31.8316 38.302C31.4818 37.676 30.8336 36.604 30.3064 35.6341C29.7793 34.6642 29.3928 33.8289 29.0254 32.7691C28.6581 31.7093 28.3215 30.4502 28.1294 29.4962C27.9373 28.5422 27.8999 27.9313 27.8931 27.5855C27.8863 27.2396 27.9112 27.1773 28.0176 27.5192C28.1239 27.8611 28.3109 28.609 28.5319 29.2561C28.7529 29.9032 29.0022 30.4268 29.3488 31.351C29.6954 32.2752 30.1317 33.5841 30.6245 34.8194C31.1173 36.0547 31.6533 37.1766 31.9731 37.817C32.2929 38.4573 32.3801 38.5819 32.4189 38.5277C32.4576 38.4735 32.4451 38.2366 32.0522 36.7808C31.6594 35.3249 30.8865 32.6571 30.4447 30.8901C30.0029 29.1232 29.9156 28.3378 29.8707 27.6465C29.8257 26.9552 29.8257 26.3818 29.8257 26.2235C29.8257 26.0652 29.8257 26.3394 29.8507 26.6366C29.8756 26.9337 29.9255 27.2453 30.188 28.104C30.4505 28.9626 30.9243 30.3588 31.561 31.7886C32.1977 33.2185 32.983 34.6396 33.4749 35.4964C33.9667 36.3531 34.1413 36.6025 34.281 36.8244C34.6705 37.4428 34.7109 37.639 34.8681 37.7907C34.9665 37.8857 35.1265 37.8415 35.2207 37.854C35.2664 37.86 35.3025 37.8914 35.2345 37.9042C34.6376 37.9794 34.196 38.1683 34.0264 38.2689C33.9441 38.3073 33.8693 38.3198 33.7167 38.3326" stroke="white" stroke-width="6" stroke-linecap="round"/>
<path d="M33.4145 43.0924C33.2774 43.0176 33.1402 42.9428 32.7205 42.6612C32.3008 42.3795 31.6027 41.8934 31.1683 41.5307C30.5326 41.0001 30.3055 40.5754 30.073 40.3427C29.901 40.1705 29.7007 40.0835 29.4875 39.8956C29.1686 39.6145 28.8579 39.2283 28.5623 38.9453C28.4387 38.827 28.3789 38.7496 27.9666 38.1127C27.5543 37.4758 26.7939 36.2791 26.2151 35.0642C25.6364 33.8493 25.2624 32.6526 25.0199 31.9239C24.7774 31.1952 24.6776 30.9708 24.62 30.824C24.5624 30.6773 24.55 30.6149 24.5371 30.5507" stroke="white" stroke-width="6" stroke-linecap="round"/>
<path d="M29.7502 41.4302C29.5874 41.4053 29.2606 41.2549 28.6947 40.7021C28.4761 40.4885 28.3151 40.3608 28.221 40.1912C28.1217 40.012 27.7881 39.583 27.4045 38.9602C27.1753 38.5881 26.931 38.2468 26.6796 37.8319C26.4965 37.5296 26.3507 37.3387 26.2255 37.0943C26.0235 36.7001 25.772 36.2696 25.5962 35.88C25.4478 35.5512 25.2681 35.2244 25.1549 34.81C25.0968 34.5969 25.0667 34.3706 24.929 33.7564C24.7913 33.1421 24.5545 32.1449 24.42 31.4753C24.2243 30.5006 24.2474 30.0234 24.285 29.7157C24.3101 29.5576 24.3475 29.3955 24.3854 29.2746C24.4234 29.1537 24.4608 29.079 24.4993 28.9641" stroke="white" stroke-width="6" stroke-linecap="round"/>
<path d="M31.9789 39.9192C31.7787 39.9192 31.4259 39.8693 30.8734 39.756C30.5067 39.6808 30.1298 39.592 29.7717 39.5356C29.4476 39.4845 29.2096 39.3907 28.934 39.253C28.0514 38.7364 27.7363 38.4346 27.5854 38.2083C27.5217 38.1067 27.4843 38.0319 27.4458 37.9548" stroke="white" stroke-width="6" stroke-linecap="round"/>
<path d="M28.088 41.5813C28.0257 41.519 27.9633 41.4567 27.5946 41.2189C27.2259 40.9811 26.5528 40.5697 26.1748 40.2955C25.694 39.9465 25.5457 39.5936 25.3256 39.2606C25.1409 38.9811 24.9416 38.5619 24.6649 38.0593C24.4305 37.6335 24.3863 37.3134 24.3047 37.1066C24.1827 36.7972 24.1468 36.4328 24.0905 36.0377C24.0136 35.4978 23.8574 35.0975 23.7883 34.8716C23.7059 34.6024 23.6312 34.2048 23.5116 33.7961C23.3353 33.1932 23.2149 32.5793 23.1397 32.0763C23.0513 31.7728 23.0011 31.5964 22.9633 31.3837C22.9504 31.2209 22.9504 30.9466 22.9504 30.6641" stroke="white" stroke-width="6" stroke-linecap="round"/>
</svg>
